<mxfile host="65bd71144e">
    <diagram id="mDvOt7vQpxW6eFoTxrLa" name="Page-1">
        <mxGraphModel dx="3407" dy="1504" grid="0" gridSize="10" guides="1" tooltips="1" connect="1" arrows="1" fold="1" page="0" pageScale="1" pageWidth="850" pageHeight="1100" math="0" shadow="0">
            <root>
                <mxCell id="0"/>
                <mxCell id="1" parent="0"/>
                <mxCell id="2" style="edgeStyle=orthogonalEdgeStyle;html=1;entryX=0.5;entryY=0;entryDx=0;entryDy=0;startArrow=none;startFill=0;endArrow=none;endFill=0;dashed=1;exitX=0.498;exitY=0.987;exitDx=0;exitDy=0;exitPerimeter=0;" edge="1" parent="1" source="64" target="74">
                    <mxGeometry relative="1" as="geometry">
                        <Array as="points">
                            <mxPoint x="-60" y="130"/>
                        </Array>
                        <mxPoint x="-450" y="370" as="sourcePoint"/>
                    </mxGeometry>
                </mxCell>
                <mxCell id="3" value="Todo" style="swimlane;fontStyle=0;childLayout=stackLayout;horizontal=1;startSize=30;horizontalStack=0;resizeParent=1;resizeParentMax=0;resizeLast=0;collapsible=1;marginBottom=0;whiteSpace=wrap;html=1;" vertex="1" parent="1">
                    <mxGeometry x="240" y="350" width="240" height="120" as="geometry"/>
                </mxCell>
                <mxCell id="4" value="uint id" style="text;strokeColor=default;fillColor=none;align=left;verticalAlign=middle;spacingLeft=4;spacingRight=4;overflow=hidden;points=[[0,0.5],[1,0.5]];portConstraint=eastwest;rotatable=0;whiteSpace=wrap;html=1;" vertex="1" parent="3">
                    <mxGeometry y="30" width="240" height="30" as="geometry"/>
                </mxCell>
                <mxCell id="5" value="std::string description" style="text;strokeColor=default;fillColor=none;align=left;verticalAlign=middle;spacingLeft=4;spacingRight=4;overflow=hidden;points=[[0,0.5],[1,0.5]];portConstraint=eastwest;rotatable=0;whiteSpace=wrap;html=1;" vertex="1" parent="3">
                    <mxGeometry y="60" width="240" height="30" as="geometry"/>
                </mxCell>
                <mxCell id="6" value="bool completed" style="text;strokeColor=default;fillColor=none;align=left;verticalAlign=middle;spacingLeft=4;spacingRight=4;overflow=hidden;points=[[0,0.5],[1,0.5]];portConstraint=eastwest;rotatable=0;whiteSpace=wrap;html=1;" vertex="1" parent="3">
                    <mxGeometry y="90" width="240" height="30" as="geometry"/>
                </mxCell>
                <mxCell id="26" style="edgeStyle=orthogonalEdgeStyle;html=1;entryX=0.5;entryY=1;entryDx=0;entryDy=0;dashed=1;startArrow=none;startFill=0;endArrow=none;endFill=0;" edge="1" parent="1" source="27" target="80">
                    <mxGeometry relative="1" as="geometry">
                        <Array as="points">
                            <mxPoint x="1080" y="920"/>
                            <mxPoint x="780" y="920"/>
                        </Array>
                    </mxGeometry>
                </mxCell>
                <mxCell id="27" value="TodoStreamResponse" style="swimlane;fontStyle=0;childLayout=stackLayout;horizontal=1;startSize=30;horizontalStack=0;resizeParent=1;resizeParentMax=0;resizeLast=0;collapsible=1;marginBottom=0;whiteSpace=wrap;html=1;" vertex="1" parent="1">
                    <mxGeometry x="960" width="240" height="90" as="geometry"/>
                </mxCell>
                <mxCell id="42" value="std::string info" style="text;strokeColor=none;fillColor=none;align=left;verticalAlign=middle;spacingLeft=4;spacingRight=4;overflow=hidden;points=[[0,0.5],[1,0.5]];portConstraint=eastwest;rotatable=0;whiteSpace=wrap;html=1;" vertex="1" parent="27">
                    <mxGeometry y="30" width="240" height="30" as="geometry"/>
                </mxCell>
                <mxCell id="43" value="std::string time" style="text;strokeColor=none;fillColor=none;align=left;verticalAlign=middle;spacingLeft=4;spacingRight=4;overflow=hidden;points=[[0,0.5],[1,0.5]];portConstraint=eastwest;rotatable=0;whiteSpace=wrap;html=1;" vertex="1" parent="27">
                    <mxGeometry y="60" width="240" height="30" as="geometry"/>
                </mxCell>
                <mxCell id="44" style="edgeStyle=orthogonalEdgeStyle;html=1;dashed=1;startArrow=none;startFill=0;endArrow=none;endFill=0;exitX=0.503;exitY=0.998;exitDx=0;exitDy=0;exitPerimeter=0;" edge="1" parent="1" source="68" target="78">
                    <mxGeometry relative="1" as="geometry">
                        <Array as="points">
                            <mxPoint x="781" y="291"/>
                            <mxPoint x="780" y="680"/>
                        </Array>
                        <mxPoint x="480" y="340" as="sourcePoint"/>
                    </mxGeometry>
                </mxCell>
                <mxCell id="50" value="Publish" style="edgeStyle=orthogonalEdgeStyle;html=1;startArrow=none;startFill=0;endArrow=classic;endFill=1;" edge="1" parent="1" source="59" target="76">
                    <mxGeometry relative="1" as="geometry"/>
                </mxCell>
                <mxCell id="51" value="Reply" style="edgeStyle=orthogonalEdgeStyle;html=1;entryX=0;entryY=0.75;entryDx=0;entryDy=0;startArrow=classic;startFill=1;endArrow=none;endFill=0;exitX=1;exitY=0.75;exitDx=0;exitDy=0;" edge="1" parent="1" source="69" target="78">
                    <mxGeometry relative="1" as="geometry">
                        <mxPoint x="500" y="770" as="sourcePoint"/>
                    </mxGeometry>
                </mxCell>
                <mxCell id="52" value="Request" style="edgeStyle=orthogonalEdgeStyle;html=1;exitX=1;exitY=0.25;exitDx=0;exitDy=0;startArrow=none;startFill=0;endArrow=classic;endFill=1;entryX=0;entryY=0.25;entryDx=0;entryDy=0;" edge="1" parent="1" source="69" target="78">
                    <mxGeometry relative="1" as="geometry">
                        <mxPoint x="580" y="750" as="targetPoint"/>
                        <mxPoint x="500" y="750" as="sourcePoint"/>
                    </mxGeometry>
                </mxCell>
                <mxCell id="53" value="Reply" style="edgeStyle=orthogonalEdgeStyle;html=1;entryX=0;entryY=0.75;entryDx=0;entryDy=0;startArrow=classic;startFill=1;endArrow=none;endFill=0;exitX=1;exitY=0.75;exitDx=0;exitDy=0;" edge="1" parent="1" source="74" target="69">
                    <mxGeometry relative="1" as="geometry"/>
                </mxCell>
                <mxCell id="54" value="Request" style="edgeStyle=orthogonalEdgeStyle;html=1;exitX=1;exitY=0.25;exitDx=0;exitDy=0;entryX=0;entryY=0.25;entryDx=0;entryDy=0;startArrow=none;startFill=0;endArrow=classic;endFill=1;" edge="1" parent="1" source="74" target="69">
                    <mxGeometry relative="1" as="geometry"/>
                </mxCell>
                <mxCell id="55" value="Publish" style="edgeStyle=orthogonalEdgeStyle;html=1;entryX=1;entryY=0.5;entryDx=0;entryDy=0;startArrow=none;startFill=0;endArrow=classic;endFill=1;" edge="1" parent="1" source="80" target="60">
                    <mxGeometry relative="1" as="geometry"/>
                </mxCell>
                <mxCell id="56" value="" style="group;" vertex="1" connectable="0" parent="1">
                    <mxGeometry x="260" y="740" width="240" height="120" as="geometry"/>
                </mxCell>
                <mxCell id="57" value="Broker" style="shape=process;whiteSpace=wrap;html=1;backgroundOutline=1;fillColor=none;fontColor=#ffffff;strokeColor=#006EAF;strokeWidth=3;" vertex="1" parent="56">
                    <mxGeometry x="60" y="20" width="120" height="80" as="geometry"/>
                </mxCell>
                <mxCell id="58" value="&amp;lt;Proxy&amp;gt;" style="edgeStyle=none;html=1;entryX=0;entryY=0.5;entryDx=0;entryDy=0;endArrow=none;endFill=0;dashed=1;" edge="1" parent="56" source="59" target="60">
                    <mxGeometry relative="1" as="geometry"/>
                </mxCell>
                <mxCell id="59" value="Pub&lt;br&gt;&amp;lt;Bind&amp;gt;" style="rounded=1;whiteSpace=wrap;html=1;fillColor=none;fontColor=#ffffff;strokeColor=#A50040;strokeWidth=3;" vertex="1" parent="56">
                    <mxGeometry y="100" width="80" height="40" as="geometry"/>
                </mxCell>
                <mxCell id="60" value="Sub&lt;br&gt;&amp;lt;Bind&amp;gt;" style="rounded=1;whiteSpace=wrap;html=1;fillColor=none;fontColor=#ffffff;strokeColor=#A50040;strokeWidth=3;" vertex="1" parent="56">
                    <mxGeometry x="160" y="100" width="80" height="40" as="geometry"/>
                </mxCell>
                <mxCell id="61" value="TodoRequest" style="swimlane;fontStyle=0;childLayout=stackLayout;horizontal=1;startSize=30;horizontalStack=0;resizeParent=1;resizeParentMax=0;resizeLast=0;collapsible=1;marginBottom=0;whiteSpace=wrap;html=1;" vertex="1" parent="1">
                    <mxGeometry x="-180" width="240" height="130" as="geometry"/>
                </mxCell>
                <mxCell id="62" value="WorkerId" style="text;strokeColor=default;fillColor=none;align=left;verticalAlign=middle;spacingLeft=4;spacingRight=4;overflow=hidden;points=[[0,0.5],[1,0.5]];portConstraint=eastwest;rotatable=0;whiteSpace=wrap;html=1;" vertex="1" parent="61">
                    <mxGeometry y="30" width="240" height="30" as="geometry"/>
                </mxCell>
                <mxCell id="63" value="Action" style="text;strokeColor=default;fillColor=none;align=left;verticalAlign=middle;spacingLeft=4;spacingRight=4;overflow=hidden;points=[[0,0.5],[1,0.5]];portConstraint=eastwest;rotatable=0;whiteSpace=wrap;html=1;" vertex="1" parent="61">
                    <mxGeometry y="60" width="240" height="30" as="geometry"/>
                </mxCell>
                <mxCell id="64" value="RequestPayload: &lt;br&gt;std::variant&amp;lt;Todo,uint,EmptyPayload&amp;gt;" style="text;strokeColor=default;fillColor=none;align=left;verticalAlign=middle;spacingLeft=4;spacingRight=4;overflow=hidden;points=[[0,0.5],[1,0.5]];portConstraint=eastwest;rotatable=0;whiteSpace=wrap;html=1;" vertex="1" parent="61">
                    <mxGeometry y="90" width="240" height="40" as="geometry"/>
                </mxCell>
                <mxCell id="65" value="TodoResponse" style="swimlane;fontStyle=0;childLayout=stackLayout;horizontal=1;startSize=30;horizontalStack=0;resizeParent=1;resizeParentMax=0;resizeLast=0;collapsible=1;marginBottom=0;whiteSpace=wrap;html=1;" vertex="1" parent="1">
                    <mxGeometry x="660" width="240" height="130" as="geometry"/>
                </mxCell>
                <mxCell id="66" value="ClientId" style="text;strokeColor=default;fillColor=none;align=left;verticalAlign=middle;spacingLeft=4;spacingRight=4;overflow=hidden;points=[[0,0.5],[1,0.5]];portConstraint=eastwest;rotatable=0;whiteSpace=wrap;html=1;" vertex="1" parent="65">
                    <mxGeometry y="30" width="240" height="30" as="geometry"/>
                </mxCell>
                <mxCell id="67" value="Action" style="text;strokeColor=default;fillColor=none;align=left;verticalAlign=middle;spacingLeft=4;spacingRight=4;overflow=hidden;points=[[0,0.5],[1,0.5]];portConstraint=eastwest;rotatable=0;whiteSpace=wrap;html=1;" vertex="1" parent="65">
                    <mxGeometry y="60" width="240" height="30" as="geometry"/>
                </mxCell>
                <mxCell id="68" value="ResponsePayload:&lt;br&gt;std::variant&amp;lt;Todo,bool,std::vector&amp;lt;Todo&amp;gt;&amp;gt;" style="text;strokeColor=default;fillColor=none;align=left;verticalAlign=middle;spacingLeft=4;spacingRight=4;overflow=hidden;points=[[0,0.5],[1,0.5]];portConstraint=eastwest;rotatable=0;whiteSpace=wrap;html=1;" vertex="1" parent="65">
                    <mxGeometry y="90" width="240" height="40" as="geometry"/>
                </mxCell>
                <mxCell id="69" value="Router&lt;br&gt;&amp;lt;Bind&amp;gt;" style="rounded=1;whiteSpace=wrap;html=1;fillColor=none;fontColor=#ffffff;strokeColor=#005700;strokeWidth=3;" vertex="1" parent="1">
                    <mxGeometry x="340" y="720" width="80" height="40" as="geometry"/>
                </mxCell>
                <mxCell id="70" value="&lt;a href=&quot;https://zguide.zeromq.org/docs/chapter2/#The-Dynamic-Discovery-Problem&quot;&gt;Pub-Sub Network&lt;/a&gt;" style="text;html=1;strokeColor=none;fillColor=none;align=center;verticalAlign=middle;whiteSpace=wrap;rounded=0;" vertex="1" parent="1">
                    <mxGeometry x="317.5" y="880" width="125" height="30" as="geometry"/>
                </mxCell>
                <mxCell id="71" value="&lt;a href=&quot;https://zguide.zeromq.org/docs/chapter4/#Service-Oriented-Reliable-Queuing-Majordomo-Pattern&quot;&gt;Majordomo Pattern&lt;/a&gt;" style="text;html=1;strokeColor=none;fillColor=none;align=center;verticalAlign=middle;whiteSpace=wrap;rounded=0;" vertex="1" parent="1">
                    <mxGeometry x="322.5" y="690" width="115" height="30" as="geometry"/>
                </mxCell>
                <mxCell id="72" value="&lt;a href=&quot;https://zguide.zeromq.org/docs/chapter2/#Signaling-Between-Threads-PAIR-Sockets&quot;&gt;Signaling Between Threads&lt;/a&gt;" style="text;html=1;align=center;verticalAlign=middle;resizable=0;points=[];autosize=1;strokeColor=none;fillColor=none;fontColor=#337AB7;" vertex="1" parent="1">
                    <mxGeometry x="-210" y="900" width="170" height="30" as="geometry"/>
                </mxCell>
                <mxCell id="73" value="" style="group;" vertex="1" connectable="0" parent="1">
                    <mxGeometry x="-270" y="700" width="250" height="200" as="geometry"/>
                </mxCell>
                <mxCell id="74" value="Dealer&lt;br&gt;&amp;lt;Connect&amp;gt;" style="rounded=1;whiteSpace=wrap;html=1;container=0;fillColor=none;fontColor=#ffffff;strokeColor=#005700;strokeWidth=3;" vertex="1" parent="73">
                    <mxGeometry x="170" y="20" width="80" height="40" as="geometry"/>
                </mxCell>
                <mxCell id="75" value="Client" style="rounded=0;whiteSpace=wrap;html=1;container=0;fillColor=none;fontColor=#ffffff;strokeColor=#006EAF;strokeWidth=3;" vertex="1" parent="73">
                    <mxGeometry x="70" y="60" width="120" height="80" as="geometry"/>
                </mxCell>
                <mxCell id="76" value="Sub&lt;br&gt;&amp;lt;Connect&amp;gt;" style="rounded=1;whiteSpace=wrap;html=1;container=0;fillColor=none;fontColor=#ffffff;strokeColor=#A50040;strokeWidth=3;" vertex="1" parent="73">
                    <mxGeometry x="170" y="140" width="80" height="40" as="geometry"/>
                </mxCell>
                <mxCell id="77" value="" style="group;" vertex="1" connectable="0" parent="1">
                    <mxGeometry x="740" y="700" width="250" height="200" as="geometry"/>
                </mxCell>
                <mxCell id="78" value="Dealer&lt;br&gt;&amp;lt;Connect&amp;gt;" style="rounded=1;whiteSpace=wrap;html=1;container=0;fillColor=none;fontColor=#ffffff;strokeColor=#005700;strokeWidth=3;" vertex="1" parent="77">
                    <mxGeometry y="20" width="80" height="40" as="geometry"/>
                </mxCell>
                <mxCell id="79" value="Worker" style="rounded=0;whiteSpace=wrap;html=1;container=0;fillColor=none;fontColor=#ffffff;strokeColor=#006EAF;strokeWidth=3;" vertex="1" parent="77">
                    <mxGeometry x="60" y="60" width="120" height="80" as="geometry"/>
                </mxCell>
                <mxCell id="80" value="Pub&lt;br&gt;&amp;lt;Connect&amp;gt;" style="rounded=1;whiteSpace=wrap;html=1;container=0;fillColor=none;fontColor=#ffffff;strokeColor=#A50040;strokeWidth=3;" vertex="1" parent="77">
                    <mxGeometry y="140" width="80" height="40" as="geometry"/>
                </mxCell>
                <mxCell id="81" value="" style="group;" vertex="1" connectable="0" parent="1">
                    <mxGeometry x="160" y="1610" width="440" height="120" as="geometry"/>
                </mxCell>
                <mxCell id="82" value="&lt;h1&gt;Declare an event loop&lt;/h1&gt;&lt;ol&gt;&lt;li&gt;Register events to a zmq::pollitem&lt;/li&gt;&lt;li&gt;call zmq::poll in a while loop to wait on event&lt;/li&gt;&lt;li&gt;setup branches to handle different event&lt;/li&gt;&lt;/ol&gt;" style="text;html=1;strokeColor=none;fillColor=none;spacing=5;spacingTop=-20;whiteSpace=wrap;overflow=hidden;rounded=0;shadow=0;strokeWidth=1;fontColor=#FFFFFF;" vertex="1" parent="81">
                    <mxGeometry x="120" width="320" height="120" as="geometry"/>
                </mxCell>
                <mxCell id="83" value="" style="ellipse;shape=doubleEllipse;whiteSpace=wrap;html=1;strokeColor=default;strokeWidth=1;fontColor=#FFFFFF;fillColor=none;shadow=0;aspect=fixed;" vertex="1" parent="81">
                    <mxGeometry width="120" height="120" as="geometry"/>
                </mxCell>
                <mxCell id="84" value="" style="group;" vertex="1" connectable="0" parent="1">
                    <mxGeometry x="420" y="1000" width="920" height="560" as="geometry"/>
                </mxCell>
                <mxCell id="85" value="" style="rounded=1;whiteSpace=wrap;html=1;" vertex="1" parent="84">
                    <mxGeometry x="229.999007940787" y="309.9961538461538" width="319.99861974370367" height="204.6153846153846" as="geometry"/>
                </mxCell>
                <mxCell id="86" value="" style="group;strokeColor=default;container=0;" vertex="1" connectable="0" parent="84">
                    <mxGeometry x="0.003968236851922707" width="919.996031763148" height="560" as="geometry"/>
                </mxCell>
                <mxCell id="87" value="" style="edgeStyle=none;orthogonalLoop=1;jettySize=auto;html=1;strokeColor=default;strokeWidth=4;fontColor=#337AB7;endArrow=classic;endFill=1;" edge="1" parent="84">
                    <mxGeometry width="100" relative="1" as="geometry">
                        <mxPoint x="720.0008626601852" y="43.07692307692307" as="sourcePoint"/>
                        <mxPoint x="720" y="560" as="targetPoint"/>
                        <Array as="points"/>
                    </mxGeometry>
                </mxCell>
                <mxCell id="88" value="main thread" style="text;html=1;align=center;verticalAlign=middle;resizable=0;points=[];autosize=1;strokeColor=none;fillColor=none;fontColor=#FFFFFF;" vertex="1" parent="84">
                    <mxGeometry x="672.5013850009275" width="90" height="30" as="geometry"/>
                </mxCell>
                <mxCell id="89" value="fork thread" style="curved=1;endArrow=classic;html=1;strokeColor=default;strokeWidth=2;fontColor=#FFFFFF;entryX=0.5;entryY=0;entryDx=0;entryDy=0;" edge="1" parent="84" target="85">
                    <mxGeometry width="50" height="50" relative="1" as="geometry">
                        <mxPoint x="720.0008626601852" y="140" as="sourcePoint"/>
                        <mxPoint x="430.0021135174537" y="323.07692307692304" as="targetPoint"/>
                        <Array as="points">
                            <mxPoint x="720.0008626601852" y="247.69230769230768"/>
                            <mxPoint x="400" y="230"/>
                        </Array>
                    </mxGeometry>
                </mxCell>
                <mxCell id="90" value="external services" style="text;html=1;align=center;verticalAlign=middle;resizable=0;points=[];autosize=1;strokeColor=default;fillColor=none;fontColor=#FFFFFF;" vertex="1" parent="84">
                    <mxGeometry y="326.65389982110906" width="110" height="30" as="geometry"/>
                </mxCell>
                <mxCell id="91" value="tcp://xxx" style="endArrow=none;html=1;dashed=1;strokeColor=default;strokeWidth=1;fontColor=#FFFFFF;exitX=1;exitY=0.5;exitDx=0;exitDy=0;endFill=0;labelBackgroundColor=none;" edge="1" parent="84" source="103" target="90">
                    <mxGeometry x="0.3913" y="20" relative="1" as="geometry">
                        <mxPoint x="342.885028963816" y="376.29855098389976" as="sourcePoint"/>
                        <mxPoint x="139.99939613787035" y="299.226923076923" as="targetPoint"/>
                        <mxPoint as="offset"/>
                    </mxGeometry>
                </mxCell>
                <mxCell id="92" value="" style="shape=message;html=1;outlineConnect=0;strokeColor=default;strokeWidth=1;fontColor=#FFFFFF;fillColor=default;" vertex="1" parent="91">
                    <mxGeometry width="20" height="14" relative="1" as="geometry">
                        <mxPoint x="-55" y="-7" as="offset"/>
                    </mxGeometry>
                </mxCell>
                <mxCell id="93" value="API" style="text;html=1;align=center;verticalAlign=middle;resizable=0;points=[];autosize=1;strokeColor=default;fillColor=none;fontColor=#FFFFFF;" vertex="1" parent="84">
                    <mxGeometry x="859.998988962263" y="350.4983899821107" width="40" height="30" as="geometry"/>
                </mxCell>
                <mxCell id="94" value="pair(bind)" style="rounded=0;whiteSpace=wrap;html=1;strokeColor=default;strokeWidth=1;fontColor=#FFFFFF;fillColor=default;" vertex="1" parent="84">
                    <mxGeometry x="716.8262731786009" y="344.61162790697676" width="91.42817706962961" height="44.07871198568873" as="geometry"/>
                </mxCell>
                <mxCell id="95" style="edgeStyle=orthogonalEdgeStyle;html=1;entryX=1;entryY=0.5;entryDx=0;entryDy=0;dashed=1;strokeColor=default;strokeWidth=1;fontColor=#FFFFFF;endArrow=classic;endFill=1;" edge="1" parent="84" source="93" target="94">
                    <mxGeometry relative="1" as="geometry">
                        <mxPoint x="808.2544502482305" y="378.5389624329158" as="targetPoint"/>
                    </mxGeometry>
                </mxCell>
                <mxCell id="96" value="&lt;span style=&quot;&quot;&gt;zmq::context&lt;/span&gt;&lt;br style=&quot;&quot;&gt;&lt;span style=&quot;&quot;&gt;(thread safe)&lt;/span&gt;" style="rounded=0;whiteSpace=wrap;html=1;strokeColor=default;strokeWidth=1;fontColor=#FFFFFF;fillColor=default;" vertex="1" parent="84">
                    <mxGeometry x="716.8262731786009" y="86.15434704830068" width="91.42817706962961" height="44.07871198568873" as="geometry"/>
                </mxCell>
                <mxCell id="97" style="edgeStyle=orthogonalEdgeStyle;html=1;entryX=0.5;entryY=0;entryDx=0;entryDy=0;dashed=1;strokeColor=default;strokeWidth=1;fontColor=#FFFFFF;endArrow=none;endFill=0;exitX=0.5;exitY=1;exitDx=0;exitDy=0;" edge="1" parent="84" source="96" target="94">
                    <mxGeometry relative="1" as="geometry">
                        <mxPoint x="762.5403617134156" y="218.38998211091237" as="sourcePoint"/>
                        <mxPoint x="752.6661185898956" y="372.7977101967797" as="targetPoint"/>
                        <Array as="points">
                            <mxPoint x="762.5403617134156" y="317.567084078712"/>
                            <mxPoint x="762.5403617134156" y="317.567084078712"/>
                        </Array>
                    </mxGeometry>
                </mxCell>
                <mxCell id="98" value="pair(connect)" style="rounded=0;whiteSpace=wrap;html=1;strokeColor=default;strokeWidth=1;fontColor=#FFFFFF;fillColor=default;" vertex="1" parent="84">
                    <mxGeometry x="438.5754098714206" y="408.9243112701254" width="91.42817706962961" height="44.07871198568873" as="geometry"/>
                </mxCell>
                <mxCell id="99" style="edgeStyle=orthogonalEdgeStyle;html=1;entryX=0.5;entryY=0;entryDx=0;entryDy=0;dashed=1;endArrow=none;endFill=0;" edge="1" parent="84" source="96" target="98">
                    <mxGeometry relative="1" as="geometry">
                        <Array as="points">
                            <mxPoint x="763.0006771882454" y="172.3076923076923"/>
                            <mxPoint x="484.00188059920373" y="172.3076923076923"/>
                            <mxPoint x="484.00188059920373" y="387.6923076923077"/>
                        </Array>
                    </mxGeometry>
                </mxCell>
                <mxCell id="100" value="inproc://xxx" style="endArrow=classic;html=1;dashed=1;strokeColor=default;strokeWidth=1;fontColor=#FFFFFF;endFill=1;edgeStyle=orthogonalEdgeStyle;startArrow=none;startFill=0;labelBackgroundColor=none;" edge="1" parent="84" source="94" target="98">
                    <mxGeometry x="0.1419" relative="1" as="geometry">
                        <mxPoint x="716.8973839829883" y="389.02969588551014" as="sourcePoint"/>
                        <mxPoint x="564.6288344166908" y="433.40593917710186" as="targetPoint"/>
                        <mxPoint as="offset"/>
                        <Array as="points">
                            <mxPoint x="620" y="367"/>
                            <mxPoint x="620" y="430"/>
                        </Array>
                    </mxGeometry>
                </mxCell>
                <mxCell id="101" value="" style="shape=message;html=1;outlineConnect=0;strokeColor=default;strokeWidth=1;fontColor=#FFFFFF;fillColor=default;" vertex="1" parent="100">
                    <mxGeometry width="20" height="14" relative="1" as="geometry">
                        <mxPoint x="-10" y="-6" as="offset"/>
                    </mxGeometry>
                </mxCell>
                <mxCell id="102" style="edgeStyle=orthogonalEdgeStyle;html=1;entryX=0.5;entryY=0;entryDx=0;entryDy=0;dashed=1;fontSize=24;fontColor=#005700;startArrow=none;startFill=0;endArrow=classic;endFill=1;" edge="1" parent="84" source="103" target="112">
                    <mxGeometry relative="1" as="geometry">
                        <Array as="points">
                            <mxPoint x="293.99873188952773" y="439.226923076923"/>
                            <mxPoint x="345.9985075978796" y="439.226923076923"/>
                        </Array>
                    </mxGeometry>
                </mxCell>
                <mxCell id="103" value="dealer" style="rounded=0;whiteSpace=wrap;html=1;strokeColor=default;strokeWidth=1;fontColor=#FFFFFF;fillColor=default;" vertex="1" parent="84">
                    <mxGeometry x="248.57622939859647" y="320.7671377459748" width="91.42817706962961" height="44.07871198568873" as="geometry"/>
                </mxCell>
                <mxCell id="104" style="edgeStyle=orthogonalEdgeStyle;html=1;dashed=1;startArrow=none;startFill=0;endArrow=classic;endFill=1;entryX=1;entryY=0.5;entryDx=0;entryDy=0;" edge="1" parent="84" source="98" target="103">
                    <mxGeometry relative="1" as="geometry">
                        <mxPoint x="353.9984730914722" y="363.84230769230766" as="targetPoint"/>
                        <Array as="points">
                            <mxPoint x="419.9981884136111" y="417.68846153846147"/>
                            <mxPoint x="419.9981884136111" y="342.3038461538461"/>
                        </Array>
                    </mxGeometry>
                </mxCell>
                <mxCell id="105" style="edgeStyle=orthogonalEdgeStyle;html=1;entryX=0.5;entryY=0;entryDx=0;entryDy=0;dashed=1;strokeColor=default;strokeWidth=1;fontColor=#FFFFFF;endArrow=none;endFill=0;exitX=0.5;exitY=1;exitDx=0;exitDy=0;" edge="1" parent="84" source="96" target="103">
                    <mxGeometry relative="1" as="geometry">
                        <mxPoint x="762.5403617134156" y="218.38998211091237" as="sourcePoint"/>
                        <mxPoint x="534.0308711573882" y="384.08186046511594" as="targetPoint"/>
                        <Array as="points">
                            <mxPoint x="762.9967089513934" y="172.3076923076923"/>
                            <mxPoint x="293.99873188952773" y="172.3076923076923"/>
                        </Array>
                    </mxGeometry>
                </mxCell>
                <mxCell id="106" value="pub" style="rounded=0;whiteSpace=wrap;html=1;strokeColor=default;strokeWidth=1;fontColor=#FFFFFF;fillColor=default;" vertex="1" parent="84">
                    <mxGeometry x="309.9959644756535" y="364.8455992844364" width="91.42817706962961" height="44.07871198568873" as="geometry"/>
                </mxCell>
                <mxCell id="107" style="edgeStyle=orthogonalEdgeStyle;html=1;entryX=0.5;entryY=1;entryDx=0;entryDy=0;dashed=1;fontSize=24;startArrow=none;startFill=0;endArrow=classic;endFill=1;" edge="1" parent="84" source="98" target="106">
                    <mxGeometry relative="1" as="geometry">
                        <Array as="points">
                            <mxPoint x="355.9984644648703" y="439.226923076923"/>
                        </Array>
                    </mxGeometry>
                </mxCell>
                <mxCell id="108" value="tcp://xxx" style="endArrow=none;html=1;dashed=1;strokeColor=default;strokeWidth=1;fontColor=#FFFFFF;endFill=0;labelBackgroundColor=none;" edge="1" parent="84" source="106" target="110">
                    <mxGeometry x="0.3" y="19" relative="1" as="geometry">
                        <mxPoint x="290.0060506985394" y="277.6849552772813" as="sourcePoint"/>
                        <mxPoint x="109.99952553689815" y="439.226923076923" as="targetPoint"/>
                        <mxPoint as="offset"/>
                    </mxGeometry>
                </mxCell>
                <mxCell id="109" value="" style="shape=message;html=1;outlineConnect=0;strokeColor=default;strokeWidth=1;fontColor=#FFFFFF;fillColor=default;" vertex="1" parent="108">
                    <mxGeometry width="20" height="14" relative="1" as="geometry">
                        <mxPoint x="-40" y="-8" as="offset"/>
                    </mxGeometry>
                </mxCell>
                <mxCell id="110" value="external services" style="text;html=1;align=center;verticalAlign=middle;resizable=0;points=[];autosize=1;strokeColor=default;fillColor=none;fontColor=#FFFFFF;" vertex="1" parent="84">
                    <mxGeometry y="370.7323613595707" width="110" height="30" as="geometry"/>
                </mxCell>
                <mxCell id="111" value="Worker" style="text;html=1;strokeColor=none;fillColor=none;align=center;verticalAlign=middle;whiteSpace=wrap;rounded=0;fontSize=24;fontStyle=1;" vertex="1" parent="84">
                    <mxGeometry x="430.0021135174537" y="21.538461538461537" width="59.99974120194444" height="32.30769230769231" as="geometry"/>
                </mxCell>
                <mxCell id="112" value="&amp;nbsp;trait" style="rounded=1;whiteSpace=wrap;html=1;fontSize=24;align=left;fillColor=none;fontColor=#005700;strokeColor=#005700;strokeWidth=2;" vertex="1" parent="84">
                    <mxGeometry x="291.42874297471116" y="460.76538461538456" width="109.99952553689815" height="43.07692307692307" as="geometry"/>
                </mxCell>
                <mxCell id="113" value="SPI" style="text;html=1;align=center;verticalAlign=middle;resizable=0;points=[];autosize=1;strokeColor=default;fillColor=none;fontColor=#FFFFFF;" vertex="1" parent="84">
                    <mxGeometry x="351.42792653224757" y="466.1530053667261" width="40" height="30" as="geometry"/>
                </mxCell>
                <mxCell id="114" value="Event loop" style="ellipse;shape=doubleEllipse;whiteSpace=wrap;html=1;aspect=fixed;strokeWidth=2;fontSize=24;fontColor=#FFFFFF;fillColor=none;" vertex="1" parent="84">
                    <mxGeometry x="189.99918047282407" y="428.45769230769224" width="79.99965493592592" height="79.99965493592592" as="geometry"/>
                </mxCell>
                <mxCell id="115" value="" style="rounded=1;whiteSpace=wrap;html=1;" vertex="1" parent="1">
                    <mxGeometry x="-210" y="1310" width="320" height="200" as="geometry"/>
                </mxCell>
                <mxCell id="116" value="" style="group;strokeColor=default;container=0;" vertex="1" connectable="0" parent="1">
                    <mxGeometry x="-580" y="1000" width="920" height="560" as="geometry"/>
                </mxCell>
                <mxCell id="117" value="" style="edgeStyle=none;orthogonalLoop=1;jettySize=auto;html=1;strokeColor=default;strokeWidth=4;fontColor=#337AB7;endArrow=classic;endFill=1;" edge="1" parent="1">
                    <mxGeometry width="100" relative="1" as="geometry">
                        <mxPoint x="-380" y="1040" as="sourcePoint"/>
                        <mxPoint x="-380" y="1560" as="targetPoint"/>
                        <Array as="points"/>
                    </mxGeometry>
                </mxCell>
                <mxCell id="118" value="main thread" style="text;html=1;align=center;verticalAlign=middle;resizable=0;points=[];autosize=1;strokeColor=none;fillColor=none;fontColor=#FFFFFF;" vertex="1" parent="1">
                    <mxGeometry x="-422.5003174603175" y="1000" width="90" height="30" as="geometry"/>
                </mxCell>
                <mxCell id="119" value="fork thread" style="curved=1;endArrow=classic;html=1;strokeColor=default;strokeWidth=2;fontColor=#FFFFFF;entryX=0.5;entryY=0;entryDx=0;entryDy=0;" edge="1" parent="1" target="115">
                    <mxGeometry width="50" height="50" relative="1" as="geometry">
                        <mxPoint x="-380" y="1130" as="sourcePoint"/>
                        <mxPoint x="-90" y="1300" as="targetPoint"/>
                        <Array as="points">
                            <mxPoint x="-380" y="1230"/>
                            <mxPoint x="-60" y="1220"/>
                        </Array>
                    </mxGeometry>
                </mxCell>
                <mxCell id="120" value="external services" style="text;html=1;align=center;verticalAlign=middle;resizable=0;points=[];autosize=1;strokeColor=default;fillColor=none;fontColor=#FFFFFF;" vertex="1" parent="1">
                    <mxGeometry x="230.0039682539682" y="1325.4679069767442" width="110" height="30" as="geometry"/>
                </mxCell>
                <mxCell id="121" value="tcp://xxx" style="endArrow=none;html=1;dashed=1;strokeColor=default;strokeWidth=1;fontColor=#FFFFFF;exitX=1;exitY=0.5;exitDx=0;exitDy=0;endFill=0;entryX=-0.001;entryY=0.5;entryDx=0;entryDy=0;entryPerimeter=0;labelBackgroundColor=none;" edge="1" parent="1" source="132" target="120">
                    <mxGeometry x="0.2957" y="-20" relative="1" as="geometry">
                        <mxPoint x="-2.8825396825400276" y="1371.566511627907" as="sourcePoint"/>
                        <mxPoint x="92" y="1371.6279069767443" as="targetPoint"/>
                        <mxPoint as="offset"/>
                    </mxGeometry>
                </mxCell>
                <mxCell id="122" value="" style="shape=message;html=1;outlineConnect=0;strokeColor=default;strokeWidth=1;fontColor=#FFFFFF;fillColor=default;" vertex="1" parent="121">
                    <mxGeometry width="20" height="14" relative="1" as="geometry">
                        <mxPoint x="20" y="-7" as="offset"/>
                    </mxGeometry>
                </mxCell>
                <mxCell id="123" value="pair.o(bind)" style="rounded=0;whiteSpace=wrap;html=1;strokeColor=default;strokeWidth=1;fontColor=#FFFFFF;fillColor=default;" vertex="1" parent="1">
                    <mxGeometry x="-468.2539682539682" y="1319.996511627907" width="91.42857142857142" height="40.93023255813954" as="geometry"/>
                </mxCell>
                <mxCell id="124" style="edgeStyle=orthogonalEdgeStyle;html=1;dashed=1;fontSize=24;startArrow=none;startFill=0;endArrow=none;endFill=0;fillColor=#1ba1e2;strokeColor=#006EAF;" edge="1" parent="1" source="125" target="136">
                    <mxGeometry relative="1" as="geometry">
                        <Array as="points">
                            <mxPoint x="-423" y="1160"/>
                            <mxPoint x="46" y="1160"/>
                        </Array>
                    </mxGeometry>
                </mxCell>
                <mxCell id="125" value="&lt;span style=&quot;&quot;&gt;zmq::context&lt;/span&gt;&lt;br style=&quot;&quot;&gt;&lt;span style=&quot;&quot;&gt;(thread safe)&lt;/span&gt;" style="rounded=0;whiteSpace=wrap;html=1;strokeColor=default;strokeWidth=1;fontColor=#FFFFFF;fillColor=default;" vertex="1" parent="1">
                    <mxGeometry x="-468.2539682539682" y="1080.0004651162792" width="91.42857142857142" height="40.93023255813954" as="geometry"/>
                </mxCell>
                <mxCell id="126" style="edgeStyle=orthogonalEdgeStyle;html=1;entryX=0.5;entryY=0;entryDx=0;entryDy=0;dashed=1;strokeColor=#001DBC;strokeWidth=1;fontColor=#FFFFFF;endArrow=none;endFill=0;exitX=0.5;exitY=1;exitDx=0;exitDy=0;fillColor=#0050ef;" edge="1" parent="1" source="125" target="123">
                    <mxGeometry relative="1" as="geometry">
                        <mxPoint x="-422.53968253968253" y="1202.7906976744187" as="sourcePoint"/>
                        <mxPoint x="-412.6653968253968" y="1346.1693023255812" as="targetPoint"/>
                        <Array as="points">
                            <mxPoint x="-422.53968253968253" y="1294.8837209302326"/>
                            <mxPoint x="-422.53968253968253" y="1294.8837209302326"/>
                        </Array>
                    </mxGeometry>
                </mxCell>
                <mxCell id="127" value="pair.o(connect)" style="rounded=0;whiteSpace=wrap;html=1;strokeColor=default;strokeWidth=1;fontColor=#FFFFFF;fillColor=default;" vertex="1" parent="1">
                    <mxGeometry x="-181.43190476190495" y="1355.4718604651164" width="91.42857142857142" height="40.93023255813954" as="geometry"/>
                </mxCell>
                <mxCell id="128" style="edgeStyle=orthogonalEdgeStyle;html=1;entryX=0.5;entryY=0;entryDx=0;entryDy=0;dashed=1;endArrow=none;endFill=0;fillColor=#1ba1e2;strokeColor=#006EAF;" edge="1" parent="1" source="125" target="127">
                    <mxGeometry relative="1" as="geometry">
                        <Array as="points">
                            <mxPoint x="-423" y="1160"/>
                            <mxPoint x="-136" y="1160"/>
                        </Array>
                    </mxGeometry>
                </mxCell>
                <mxCell id="129" value="&lt;span style=&quot;color: rgb(255, 255, 255); font-family: Helvetica; font-size: 11px; font-style: normal; font-variant-ligatures: normal; font-variant-caps: normal; font-weight: 400; letter-spacing: normal; orphans: 2; text-align: center; text-indent: 0px; text-transform: none; widows: 2; word-spacing: 0px; -webkit-text-stroke-width: 0px; text-decoration-thickness: initial; text-decoration-style: initial; text-decoration-color: initial; float: none; display: inline !important;&quot;&gt;inproc://xxx&lt;/span&gt;" style="endArrow=classic;html=1;dashed=1;strokeColor=default;strokeWidth=1;fontColor=#FFFFFF;entryX=0;entryY=0.5;entryDx=0;entryDy=0;exitX=1;exitY=0.5;exitDx=0;exitDy=0;endFill=1;edgeStyle=orthogonalEdgeStyle;startArrow=none;startFill=0;labelBackgroundColor=none;" edge="1" parent="1" source="123" target="127">
                    <mxGeometry x="0.1033" y="-1" relative="1" as="geometry">
                        <mxPoint x="-376.8965079365079" y="1361.2418604651166" as="sourcePoint"/>
                        <mxPoint x="-224.62730158730164" y="1402.4483720930232" as="targetPoint"/>
                        <mxPoint as="offset"/>
                        <Array as="points">
                            <mxPoint x="-279" y="1340"/>
                            <mxPoint x="-279" y="1376"/>
                        </Array>
                    </mxGeometry>
                </mxCell>
                <mxCell id="130" value="" style="shape=message;html=1;outlineConnect=0;strokeColor=default;strokeWidth=1;fontColor=#FFFFFF;fillColor=default;" vertex="1" parent="129">
                    <mxGeometry width="20" height="14" relative="1" as="geometry">
                        <mxPoint x="-11" y="-13" as="offset"/>
                    </mxGeometry>
                </mxCell>
                <mxCell id="131" style="edgeStyle=orthogonalEdgeStyle;html=1;fontSize=24;fontColor=#FF3333;startArrow=none;startFill=0;endArrow=classic;endFill=1;entryX=1;entryY=0.5;entryDx=0;entryDy=0;dashed=1;" edge="1" parent="1" source="132" target="149">
                    <mxGeometry relative="1" as="geometry">
                        <Array as="points">
                            <mxPoint x="-14" y="1417"/>
                        </Array>
                    </mxGeometry>
                </mxCell>
                <mxCell id="132" value="dealer" style="rounded=0;whiteSpace=wrap;html=1;strokeColor=default;strokeWidth=1;fontColor=#FFFFFF;fillColor=default;" vertex="1" parent="1">
                    <mxGeometry x="-60.001904761904825" y="1320.0016279069766" width="91.42857142857142" height="40.93023255813954" as="geometry"/>
                </mxCell>
                <mxCell id="133" style="edgeStyle=orthogonalEdgeStyle;html=1;entryX=0;entryY=0.5;entryDx=0;entryDy=0;dashed=1;startArrow=none;startFill=0;endArrow=classic;endFill=1;exitX=1;exitY=0.5;exitDx=0;exitDy=0;" edge="1" parent="1" source="127" target="132">
                    <mxGeometry relative="1" as="geometry">
                        <Array as="points">
                            <mxPoint x="-80" y="1376"/>
                            <mxPoint x="-80" y="1341"/>
                        </Array>
                    </mxGeometry>
                </mxCell>
                <mxCell id="134" style="edgeStyle=orthogonalEdgeStyle;html=1;entryX=0.5;entryY=0;entryDx=0;entryDy=0;dashed=1;strokeColor=#001DBC;strokeWidth=1;fontColor=#FFFFFF;endArrow=none;endFill=0;exitX=0.5;exitY=1;exitDx=0;exitDy=0;fillColor=#0050ef;" edge="1" parent="1" source="125" target="132">
                    <mxGeometry relative="1" as="geometry">
                        <mxPoint x="-422.53968253968253" y="1202.7906976744187" as="sourcePoint"/>
                        <mxPoint x="-194.02920634920656" y="1356.6474418604648" as="targetPoint"/>
                        <Array as="points">
                            <mxPoint x="-423" y="1160"/>
                            <mxPoint x="-14" y="1160"/>
                        </Array>
                    </mxGeometry>
                </mxCell>
                <mxCell id="135" style="edgeStyle=orthogonalEdgeStyle;html=1;dashed=1;fontSize=24;fontColor=#005700;startArrow=none;startFill=0;endArrow=classic;endFill=1;entryX=1;entryY=0.5;entryDx=0;entryDy=0;" edge="1" parent="1" source="136" target="144">
                    <mxGeometry relative="1" as="geometry"/>
                </mxCell>
                <mxCell id="136" value="sub" style="rounded=0;whiteSpace=wrap;html=1;strokeColor=default;strokeWidth=1;fontColor=#FFFFFF;fillColor=default;" vertex="1" parent="1">
                    <mxGeometry x="-0.0019047619048251363" y="1360.9316279069767" width="91.42857142857142" height="40.93023255813954" as="geometry"/>
                </mxCell>
                <mxCell id="137" value="tcp://xxx" style="endArrow=none;html=1;dashed=1;strokeColor=default;strokeWidth=1;fontColor=#FFFFFF;exitX=1;exitY=0.5;exitDx=0;exitDy=0;endFill=0;entryX=-0.009;entryY=0.5;entryDx=0;entryDy=0;entryPerimeter=0;labelBackgroundColor=none;" edge="1" parent="1" source="136" target="139">
                    <mxGeometry x="-0.0048" y="-15" relative="1" as="geometry">
                        <mxPoint x="49.99666666666633" y="1279.996744186047" as="sourcePoint"/>
                        <mxPoint x="126.71396825396812" y="1279.9979069767444" as="targetPoint"/>
                        <mxPoint as="offset"/>
                    </mxGeometry>
                </mxCell>
                <mxCell id="138" value="" style="shape=message;html=1;outlineConnect=0;strokeColor=default;strokeWidth=1;fontColor=#FFFFFF;fillColor=default;" vertex="1" parent="137">
                    <mxGeometry width="20" height="14" relative="1" as="geometry">
                        <mxPoint x="-10" y="-7" as="offset"/>
                    </mxGeometry>
                </mxCell>
                <mxCell id="139" value="external services" style="text;html=1;align=center;verticalAlign=middle;resizable=0;points=[];autosize=1;strokeColor=default;fillColor=none;fontColor=#FFFFFF;" vertex="1" parent="1">
                    <mxGeometry x="230.0039682539682" y="1366.3979069767443" width="110" height="30" as="geometry"/>
                </mxCell>
                <mxCell id="140" value="Client" style="text;html=1;strokeColor=none;fillColor=none;align=center;verticalAlign=middle;whiteSpace=wrap;rounded=0;fontSize=24;fontStyle=1;" vertex="1" parent="1">
                    <mxGeometry x="-150" y="1020" width="60" height="30" as="geometry"/>
                </mxCell>
                <mxCell id="141" style="edgeStyle=orthogonalEdgeStyle;html=1;entryX=0;entryY=0.5;entryDx=0;entryDy=0;dashed=1;fontSize=24;startArrow=none;startFill=0;endArrow=classic;endFill=1;exitX=1.005;exitY=0.334;exitDx=0;exitDy=0;exitPerimeter=0;" edge="1" parent="1" source="142" target="123">
                    <mxGeometry relative="1" as="geometry">
                        <Array as="points">
                            <mxPoint x="-494" y="1355"/>
                            <mxPoint x="-494" y="1341"/>
                        </Array>
                    </mxGeometry>
                </mxCell>
                <mxCell id="142" value="API" style="text;html=1;align=center;verticalAlign=middle;resizable=0;points=[];autosize=1;strokeColor=default;fillColor=none;fontColor=#FFFFFF;" vertex="1" parent="1">
                    <mxGeometry x="-559.9998515330276" y="1345.0027906976743" width="40" height="30" as="geometry"/>
                </mxCell>
                <mxCell id="143" value="&lt;font style=&quot;font-size: 12px;&quot;&gt;std::move&lt;/font&gt;" style="edgeStyle=orthogonalEdgeStyle;html=1;dashed=1;fontSize=12;fontColor=#FFFFFF;startArrow=classic;startFill=1;endArrow=none;endFill=0;entryX=1;entryY=0.502;entryDx=0;entryDy=0;entryPerimeter=0;" edge="1" parent="1" source="144" target="155">
                    <mxGeometry relative="1" as="geometry">
                        <mxPoint x="-380" y="1469.53" as="targetPoint"/>
                        <mxPoint as="offset"/>
                    </mxGeometry>
                </mxCell>
                <mxCell id="144" value="&amp;nbsp;trait" style="rounded=1;whiteSpace=wrap;html=1;fontSize=24;align=left;fillColor=none;fontColor=#005700;strokeColor=#005700;strokeWidth=2;" vertex="1" parent="1">
                    <mxGeometry x="-100" y="1454.53" width="110" height="40" as="geometry"/>
                </mxCell>
                <mxCell id="145" value="SPI" style="text;html=1;align=center;verticalAlign=middle;resizable=0;points=[];autosize=1;strokeColor=default;fillColor=none;fontColor=#FFFFFF;" vertex="1" parent="1">
                    <mxGeometry x="-40.00055764681325" y="1454.5327906976743" width="40" height="30" as="geometry"/>
                </mxCell>
                <mxCell id="146" style="edgeStyle=orthogonalEdgeStyle;html=1;entryX=0.5;entryY=0;entryDx=0;entryDy=0;dashed=1;strokeColor=#006EAF;strokeWidth=1;fontColor=#FFFFFF;endArrow=none;endFill=0;exitX=0.5;exitY=1;exitDx=0;exitDy=0;fillColor=#1ba1e2;" edge="1" parent="1">
                    <mxGeometry relative="1" as="geometry">
                        <mxPoint x="-422.4996825396829" y="1120.920697674419" as="sourcePoint"/>
                        <mxPoint x="-422.4996825396829" y="1319.9865116279075" as="targetPoint"/>
                        <Array as="points">
                            <mxPoint x="-422.4996825396825" y="1294.8737209302326"/>
                            <mxPoint x="-422.4996825396825" y="1294.8737209302326"/>
                        </Array>
                    </mxGeometry>
                </mxCell>
                <mxCell id="147" style="edgeStyle=orthogonalEdgeStyle;html=1;entryX=0.5;entryY=0;entryDx=0;entryDy=0;dashed=1;strokeColor=#006EAF;strokeWidth=1;fontColor=#FFFFFF;endArrow=none;endFill=0;exitX=0.5;exitY=1;exitDx=0;exitDy=0;fillColor=#1ba1e2;" edge="1" parent="1">
                    <mxGeometry relative="1" as="geometry">
                        <mxPoint x="-422.4996825396829" y="1120.920697674419" as="sourcePoint"/>
                        <mxPoint x="-14.247619047619082" y="1319.9916279069766" as="targetPoint"/>
                        <Array as="points">
                            <mxPoint x="-422.96" y="1159.99"/>
                            <mxPoint x="-13.959999999999994" y="1159.99"/>
                        </Array>
                    </mxGeometry>
                </mxCell>
                <mxCell id="148" value="Event loop" style="ellipse;shape=doubleEllipse;whiteSpace=wrap;html=1;aspect=fixed;strokeWidth=2;fontSize=24;fontColor=#FFFFFF;fillColor=none;" vertex="1" parent="1">
                    <mxGeometry x="70" y="1420" width="80" height="80" as="geometry"/>
                </mxCell>
                <mxCell id="149" value="pair.i(connect)" style="rounded=0;whiteSpace=wrap;html=1;strokeColor=default;strokeWidth=1;fontColor=#FFFFFF;fillColor=default;" vertex="1" parent="1">
                    <mxGeometry x="-181.43190476190495" y="1396.4018604651164" width="91.42857142857142" height="40.93023255813954" as="geometry"/>
                </mxCell>
                <mxCell id="150" value="" style="endArrow=classic;html=1;dashed=1;fontSize=12;fontColor=#FFFFFF;exitX=0;exitY=0.5;exitDx=0;exitDy=0;edgeStyle=orthogonalEdgeStyle;entryX=1;entryY=0.5;entryDx=0;entryDy=0;" edge="1" parent="1" source="149" target="154">
                    <mxGeometry x="-0.1771" relative="1" as="geometry">
                        <mxPoint x="-290" y="1300" as="sourcePoint"/>
                        <mxPoint x="-190" y="1300" as="targetPoint"/>
                        <Array as="points">
                            <mxPoint x="-330" y="1417"/>
                            <mxPoint x="-330" y="1381"/>
                            <mxPoint x="-377" y="1381"/>
                        </Array>
                        <mxPoint as="offset"/>
                    </mxGeometry>
                </mxCell>
                <mxCell id="151" value="" style="shape=message;html=1;outlineConnect=0;strokeColor=default;strokeWidth=1;fontSize=12;fontColor=#FFFFFF;fillColor=none;" vertex="1" parent="150">
                    <mxGeometry width="20" height="14" relative="1" as="geometry">
                        <mxPoint x="7" y="-7" as="offset"/>
                    </mxGeometry>
                </mxCell>
                <mxCell id="152" value="&lt;span style=&quot;font-size: 11px;&quot;&gt;inproc://xxx&lt;/span&gt;" style="edgeLabel;html=1;align=center;verticalAlign=middle;resizable=0;points=[];fontSize=12;fontColor=#FFFFFF;labelBackgroundColor=none;" vertex="1" connectable="0" parent="150">
                    <mxGeometry x="-0.296" y="1" relative="1" as="geometry">
                        <mxPoint x="-17" y="14" as="offset"/>
                    </mxGeometry>
                </mxCell>
                <mxCell id="153" value="" style="edgeStyle=orthogonalEdgeStyle;html=1;dashed=1;labelBackgroundColor=none;fontSize=12;fontColor=#FFFFFF;startArrow=none;startFill=0;endArrow=classic;endFill=1;entryX=0.995;entryY=0.675;entryDx=0;entryDy=0;entryPerimeter=0;" edge="1" parent="1" source="154" target="142">
                    <mxGeometry relative="1" as="geometry">
                        <Array as="points">
                            <mxPoint x="-494" y="1381"/>
                            <mxPoint x="-494" y="1365"/>
                            <mxPoint x="-520" y="1365"/>
                        </Array>
                    </mxGeometry>
                </mxCell>
                <mxCell id="154" value="pair.i(bind)" style="rounded=0;whiteSpace=wrap;html=1;strokeColor=default;strokeWidth=1;fontColor=#FFFFFF;fillColor=default;" vertex="1" parent="1">
                    <mxGeometry x="-468.2539682539682" y="1360.936511627907" width="91.42857142857142" height="40.93023255813954" as="geometry"/>
                </mxCell>
                <mxCell id="155" value="trait cst" style="text;html=1;align=center;verticalAlign=middle;resizable=0;points=[];autosize=1;strokeColor=default;fillColor=default;fontSize=12;fontColor=#FFFFFF;" vertex="1" parent="1">
                    <mxGeometry x="-436.83" y="1459.53" width="60" height="30" as="geometry"/>
                </mxCell>
                <mxCell id="156" value="Action" style="swimlane;fontStyle=0;childLayout=stackLayout;horizontal=1;startSize=30;horizontalStack=0;resizeParent=1;resizeParentMax=0;resizeLast=0;collapsible=1;marginBottom=0;whiteSpace=wrap;html=1;" vertex="1" parent="1">
                    <mxGeometry x="240" y="110" width="240" height="180" as="geometry"/>
                </mxCell>
                <mxCell id="157" value="GET_ALL" style="text;strokeColor=default;fillColor=none;align=left;verticalAlign=middle;spacingLeft=4;spacingRight=4;overflow=hidden;points=[[0,0.5],[1,0.5]];portConstraint=eastwest;rotatable=0;whiteSpace=wrap;html=1;" vertex="1" parent="156">
                    <mxGeometry y="30" width="240" height="30" as="geometry"/>
                </mxCell>
                <mxCell id="158" value="GET" style="text;strokeColor=default;fillColor=none;align=left;verticalAlign=middle;spacingLeft=4;spacingRight=4;overflow=hidden;points=[[0,0.5],[1,0.5]];portConstraint=eastwest;rotatable=0;whiteSpace=wrap;html=1;" vertex="1" parent="156">
                    <mxGeometry y="60" width="240" height="30" as="geometry"/>
                </mxCell>
                <mxCell id="159" value="CREATE" style="text;strokeColor=default;fillColor=none;align=left;verticalAlign=middle;spacingLeft=4;spacingRight=4;overflow=hidden;points=[[0,0.5],[1,0.5]];portConstraint=eastwest;rotatable=0;whiteSpace=wrap;html=1;" vertex="1" parent="156">
                    <mxGeometry y="90" width="240" height="30" as="geometry"/>
                </mxCell>
                <mxCell id="160" value="MODIFY" style="text;strokeColor=default;fillColor=none;align=left;verticalAlign=middle;spacingLeft=4;spacingRight=4;overflow=hidden;points=[[0,0.5],[1,0.5]];portConstraint=eastwest;rotatable=0;whiteSpace=wrap;html=1;" vertex="1" parent="156">
                    <mxGeometry y="120" width="240" height="30" as="geometry"/>
                </mxCell>
                <mxCell id="161" value="DELETE" style="text;strokeColor=default;fillColor=none;align=left;verticalAlign=middle;spacingLeft=4;spacingRight=4;overflow=hidden;points=[[0,0.5],[1,0.5]];portConstraint=eastwest;rotatable=0;whiteSpace=wrap;html=1;" vertex="1" parent="156">
                    <mxGeometry y="150" width="240" height="30" as="geometry"/>
                </mxCell>
                <mxCell id="162" style="edgeStyle=orthogonalEdgeStyle;html=1;entryX=0.5;entryY=0;entryDx=0;entryDy=0;endArrow=none;endFill=0;dashed=1;" edge="1" parent="1" source="63" target="156">
                    <mxGeometry relative="1" as="geometry"/>
                </mxCell>
                <mxCell id="163" style="edgeStyle=orthogonalEdgeStyle;html=1;entryX=0.002;entryY=0.128;entryDx=0;entryDy=0;endArrow=none;endFill=0;entryPerimeter=0;dashed=1;" edge="1" parent="1" source="64" target="3">
                    <mxGeometry relative="1" as="geometry">
                        <Array as="points">
                            <mxPoint x="200" y="110"/>
                            <mxPoint x="200" y="365"/>
                        </Array>
                    </mxGeometry>
                </mxCell>
                <mxCell id="164" value="uint id" style="text;strokeColor=default;fillColor=none;align=left;verticalAlign=middle;spacingLeft=4;spacingRight=4;overflow=hidden;points=[[0,0.5],[1,0.5]];portConstraint=eastwest;rotatable=0;whiteSpace=wrap;html=1;" vertex="1" parent="1">
                    <mxGeometry x="240" y="490" width="240" height="30" as="geometry"/>
                </mxCell>
                <mxCell id="165" value="EmptyPayload" style="text;strokeColor=default;fillColor=none;align=left;verticalAlign=middle;spacingLeft=4;spacingRight=4;overflow=hidden;points=[[0,0.5],[1,0.5]];portConstraint=eastwest;rotatable=0;whiteSpace=wrap;html=1;" vertex="1" parent="1">
                    <mxGeometry x="240" y="540" width="240" height="30" as="geometry"/>
                </mxCell>
                <mxCell id="166" style="edgeStyle=orthogonalEdgeStyle;html=1;endArrow=none;endFill=0;dashed=1;" edge="1" parent="1" source="64" target="164">
                    <mxGeometry relative="1" as="geometry">
                        <Array as="points">
                            <mxPoint x="140" y="110"/>
                            <mxPoint x="140" y="505"/>
                        </Array>
                    </mxGeometry>
                </mxCell>
                <mxCell id="169" value="std::vector&amp;lt;Todo&amp;gt;" style="text;strokeColor=default;fillColor=none;align=left;verticalAlign=middle;spacingLeft=4;spacingRight=4;overflow=hidden;points=[[0,0.5],[1,0.5]];portConstraint=eastwest;rotatable=0;whiteSpace=wrap;html=1;" vertex="1" parent="1">
                    <mxGeometry x="240" y="590" width="240" height="30" as="geometry"/>
                </mxCell>
                <mxCell id="170" style="edgeStyle=orthogonalEdgeStyle;html=1;entryX=1.001;entryY=0.132;entryDx=0;entryDy=0;entryPerimeter=0;endArrow=none;endFill=0;dashed=1;" edge="1" parent="1" source="68" target="3">
                    <mxGeometry relative="1" as="geometry">
                        <Array as="points">
                            <mxPoint x="520" y="110"/>
                            <mxPoint x="520" y="366"/>
                        </Array>
                    </mxGeometry>
                </mxCell>
                <mxCell id="171" style="edgeStyle=orthogonalEdgeStyle;html=1;entryX=1;entryY=0.5;entryDx=0;entryDy=0;endArrow=none;endFill=0;dashed=1;" edge="1" parent="1" source="68" target="165">
                    <mxGeometry relative="1" as="geometry">
                        <Array as="points">
                            <mxPoint x="580" y="110"/>
                            <mxPoint x="580" y="555"/>
                        </Array>
                    </mxGeometry>
                </mxCell>
                <mxCell id="183" style="edgeStyle=orthogonalEdgeStyle;html=1;entryX=0.5;entryY=0;entryDx=0;entryDy=0;endArrow=none;endFill=0;dashed=1;" edge="1" parent="1">
                    <mxGeometry relative="1" as="geometry">
                        <mxPoint x="660" y="75.00000000000011" as="sourcePoint"/>
                        <mxPoint x="360" y="110" as="targetPoint"/>
                        <Array as="points">
                            <mxPoint x="360" y="75"/>
                        </Array>
                    </mxGeometry>
                </mxCell>
                <mxCell id="184" style="edgeStyle=orthogonalEdgeStyle;html=1;entryX=1;entryY=0.5;entryDx=0;entryDy=0;endArrow=none;endFill=0;dashed=1;" edge="1" parent="1">
                    <mxGeometry relative="1" as="geometry">
                        <mxPoint x="660" y="110.0526315789474" as="sourcePoint"/>
                        <mxPoint x="480" y="605.0000000000002" as="targetPoint"/>
                        <Array as="points">
                            <mxPoint x="640" y="110"/>
                            <mxPoint x="640" y="605"/>
                        </Array>
                    </mxGeometry>
                </mxCell>
                <mxCell id="185" style="edgeStyle=orthogonalEdgeStyle;html=1;entryX=0;entryY=0.5;entryDx=0;entryDy=0;endArrow=none;endFill=0;dashed=1;" edge="1" parent="1">
                    <mxGeometry relative="1" as="geometry">
                        <mxPoint x="60" y="110.0526315789474" as="sourcePoint"/>
                        <mxPoint x="240" y="555.0000000000002" as="targetPoint"/>
                        <Array as="points">
                            <mxPoint x="80" y="110"/>
                            <mxPoint x="80" y="555"/>
                        </Array>
                    </mxGeometry>
                </mxCell>
            </root>
        </mxGraphModel>
    </diagram>
</mxfile>